<?xml version="1.0"?><svg version="1.2" baseProfile="tiny-ps" viewBox="0 0 300 300" xmlns="http://www.w3.org/2000/svg" xmlns:xlink="http://www.w3.org/1999/xlink"><title>Seadays</title><g><g fill="#fffefe" transform="matrix(.1 0 0 -.1 0 300)"><path d="M0 1500V0h3000v3000H0V1500z"/></g><g fill="#f2d3d9" transform="matrix(.1 0 0 -.1 0 300)"><path d="M0 1500V0h3000v3000H0V1500zm2114 605 79-14 38-37c21-21 37-39 36-41-2-1-34 8-73 21l-69 23-90 13-90 13-120-7c-66-3-131-8-145-11l-25-5 35 13c30 12 100 26 200 41 57 8 150 4 224-9zm41-104c149-39 260-110 324-208 17-25 31-50 31-54s-48 17-106 46l-106 53-95 31-96 31-121 21-121 21-225-5-225-4-108-22c-60-12-114-20-120-18-32 10 324 106 470 126l68 10 175-4 175-3 80-21zm-102-155c200-38 385-110 473-182l42-34 12-36c7-19 10-37 7-40-2-3-29 5-58 17-247 97-572 147-1111 170l-267 12-233-12c-128-6-277-16-331-22s-101-9-103-6c-16 16 427 98 731 137l150 19 300-3 300-3 88-17zm-443-176c246-15 451-40 652-81 142-28 299-71 327-88l15-9-13-69c-6-37-19-89-27-115l-15-47-82-29c-86-31-308-102-617-197-227-70-369-115-525-166l-120-39-25 28c-14 16-61 71-105 123-109 129-430 447-575 570-66 56-118 104-115 107 9 9 340 19 710 20l360 1 155-9zm-410-179v-8l123-7c298-16 735-50 805-61l32-6v78l-37 7c-21 3-237 6-480 6h-443v-9z"/></g><g fill="#e096a5" transform="matrix(.1 0 0 -.1 0 300)"><path d="M0 1500V0h3000v3000H0V1500zm2172 600 36-10 37-41c20-22 35-43 32-45-2-2-20 3-40 11-62 26-147 45-244 55l-91 10-109-10c-59-6-121-13-137-16l-29-6 7 10c6 11 66 28 166 48l65 13 135-4 135-4 37-11zm-127-75c163-25 261-62 352-135l52-41 37-60c20-33 34-62 31-65s-28 9-55 26c-116 71-293 134-464 166l-83 15-160 6-160 6-105-12c-97-11-308-45-355-57l-20-5 15 10c20 14 204 74 321 105 117 30 282 51 424 54l70 2 100-15zm-30-170c55-8 143-27 195-41l95-25 101-49 102-49 35-33 35-33 11-40c6-21 9-40 7-42s-44 13-95 32c-167 65-370 104-726 142l-160 17h-415l-415 1-130-13c-71-7-155-15-185-18s-52-3-49 0c25 26 623 134 859 155 69 6 143 13 165 15s137 2 255 1l215-4 100-16zm-425-180c240-16 468-42 620-70 113-22 315-73 358-91l35-14-7-66c-7-70-31-151-49-171-15-16-121-52-444-154-142-44-395-124-563-176-168-53-314-97-325-97l-21-1-93 110c-129 151-468 489-612 610l-119 100 38 7c58 12 402 25 687 26l261 2 234-15zm-260-185-125-5 245-13c135-7 288-16 340-22 217-21 362-31 367-27 3 3 2 19-2 35l-6 29-97 6c-108 8-530 6-722-3z"/></g><g fill="#d3556e" transform="matrix(.1 0 0 -.1 0 300)"><path d="M0 1500V0h3000v3000H0V1500zm2141 610 54-10 45-45c24-24 41-47 38-51-4-3-39 6-80 19l-73 25-84 13-84 12-121-6c-67-4-143-9-171-13l-50-6 15 11c19 13 110 41 170 51 25 4 100 8 166 9l121 1 54-10zm-74-84c109-20 167-38 241-75 99-50 190-144 208-216l7-29-34 23c-56 38-209 107-294 134-118 37-213 55-367 68l-136 12-139-12c-76-6-201-22-277-36-77-14-147-25-155-25h-15l10 9c10 10 223 80 324 107 36 9 117 25 180 34l115 18 125 1 125 1 82-14zm-139-156c259-28 496-108 610-206l41-34 11-35c6-19 10-41 8-49l-3-15-70 31c-212 91-568 146-1092 170l-262 12-253-13c-139-7-310-18-380-25l-128-12v7c0 7 158 47 310 78 155 32 425 72 575 86l140 13 198 1 198 1 97-10zm-298-195c382-25 645-67 889-141l84-26-6-79-6-79-21-49-22-49-41-15c-77-29-220-75-437-142-340-106-719-224-797-250l-71-23-123 141c-155 178-448 468-601 595l-116 97 7 7c11 12 371 25 721 26l325 1 215-14zm-165-185-150-6 65-2c121-4 642-45 733-58l37-6v60l-37 6c-63 9-488 13-648 6z"/></g><g fill="#fb0032" transform="matrix(.1 0 0 -.1 0 300)"><path d="M0 1500V0h3000v3000H0V1500zm2116 617 71-13 26-17c29-19 82-85 75-93-3-2-45 9-94 25l-89 30-100 8-100 9-105-7c-57-4-124-10-147-14l-43-6v9c0 14 63 37 150 56 89 19 122 22 215 24l70 1 71-12zm49-107 80-22 66-34 66-35 52-51c87-85 128-195 53-143-37 27-181 95-251 120-98 35-182 55-300 71l-106 14h-130c-72 0-169-5-215-10-89-11-317-47-360-57l-25-6 13 16 13 16 122 40c151 49 210 65 312 85 125 24 129 24 335 21l195-3 80-22zm-349-130c175-11 281-27 418-66 147-42 288-115 334-175 22-27 47-97 38-106-3-3-54 13-113 35l-108 40-120 27c-131 29-328 57-555 77l-145 13-390-1H785l-190-16c-174-16-206-16-194-3 13 12 338 85 469 105 30 5 114 18 185 29 156 24 345 41 555 49 25 1 117-3 206-8zm-175-200c329-22 659-75 881-142l67-20 12-14 12-14-6-53c-9-70-33-150-55-176l-17-21-87-30c-48-17-189-62-315-101-125-38-311-96-413-128-102-33-261-83-353-112l-169-53-36 44c-173 209-492 531-689 697-62 52-113 98-113 103v8l83 6c45 4 177 11 292 16l210 9 271-5c150-2 341-9 425-14zm-191-194c0-2 73-9 163-15 89-7 230-19 312-27 83-8 167-14 188-14h38l-3 23-3 22-100 6c-109 7-595 11-595 5z"/></g><g fill="#d31338" transform="matrix(.1 0 0 -.1 0 300)"><path d="M1781 2058c-63-4-128-12-145-16l-31-9 200 5 201 5 84-17c47-10 109-26 138-35l53-18 4 7 5 8-93 30-92 31-75 6c-41 3-88 7-105 9-16 2-81-1-144-6zm-316-139c-86-11-313-48-338-55-41-12-5-14 74-5 46 6 164 15 262 21l177 10 168-10 168-10 85-15c172-32 344-91 419-145l30-21 10 6c5 3 10 11 10 16v10l-10-6-10-6-35 21c-151 94-342 159-544 186l-106 14-145-1c-80-1-176-5-215-10zm-770-204c-104-8-215-17-245-21l-55-7 17-6 17-6 158 8c87 5 320 9 518 9l360 1 165-12c278-20 496-49 705-96 141-31 243-61 262-76l13-11v27l-113 42-112 41-120 27c-126 28-323 56-535 75l-125 11-360 4-360 4-190-14zm-335-73c0-4 18-26 40-47s40-44 40-51c0-6 90-95 200-198l199-187 141-157c78-86 160-172 183-191l42-33 50 6 50 6 500 155c696 217 707 221 754 280l20 26 15 69c9 38 16 77 15 87 0 10-7-8-15-40-16-69-38-113-62-125-30-16-190-69-477-157-154-48-334-104-400-125s-196-62-288-91l-169-53-36 44c-192 232-501 542-720 723-45 37-82 64-82 59zm1090-156c0-2 73-9 163-15 89-7 230-19 312-27 83-8 167-14 188-14h38l-3 23-3 22-100 6c-109 7-595 11-595 5z"/></g></g></svg>